<svg width="12" height="12" viewBox="0 0 12 12" fill="none" xmlns="http://www.w3.org/2000/svg">
<g id="Frame 34901">
<path id="&#244;&#128;&#134;&#133;" d="M5.70128 9C5.93189 9 6.10938 8.91676 6.23376 8.75028L9.87174 3.79704C9.91579 3.73774 9.94818 3.68073 9.96891 3.626C9.98963 3.57127 10 3.51653 10 3.4618C10 3.32725 9.94947 3.21665 9.84842 3.12999C9.74736 3.04333 9.6178 3 9.45974 3C9.35092 3 9.26023 3.01938 9.18767 3.05815C9.11512 3.09464 9.04516 3.15849 8.97779 3.24971L5.68573 7.84036L3.99889 5.95895C3.87711 5.8244 3.72682 5.75713 3.54803 5.75713C3.38997 5.75713 3.25912 5.8016 3.15547 5.89054C3.05182 5.97948 3 6.09236 3 6.22919C3 6.29076 3.01166 6.35006 3.03498 6.40707C3.06089 6.46408 3.10235 6.52223 3.15936 6.58153L5.17268 8.76397C5.31779 8.92132 5.49398 9 5.70128 9Z" fill="#60D13A"/>
</g>
</svg>
