<svg width="16" height="15" viewBox="0 0 16 15" fill="none" xmlns="http://www.w3.org/2000/svg">
<path d="M8 13.873C8.54798 13.873 9.0607 13.7139 9.53815 13.3957C10.0156 13.0774 10.4334 12.631 10.7915 12.0562C11.155 11.4768 11.4398 10.8023 11.646 10.0328C11.8522 9.25861 11.9552 8.4179 11.9552 7.51069C11.9552 6.60348 11.8522 5.76276 11.646 4.98855C11.4452 4.20958 11.1631 3.53274 10.7996 2.95802C10.4361 2.37854 10.0156 1.92969 9.53815 1.61145C9.0607 1.28846 8.54798 1.12697 8 1.12697C7.45202 1.12697 6.9393 1.28846 6.46185 1.61145C5.9844 1.92969 5.56392 2.37854 5.20041 2.95802C4.83689 3.53274 4.55205 4.20958 4.34588 4.98855C4.14513 5.76276 4.04476 6.60348 4.04476 7.51069C4.04476 8.4179 4.14513 9.25861 4.34588 10.0328C4.55205 10.8023 4.83689 11.4768 5.20041 12.0562C5.56392 12.631 5.9844 13.0774 6.46185 13.3957C6.94473 13.7139 7.45744 13.873 8 13.873ZM8 2.03181C8.36894 2.03181 8.7216 2.17905 9.05799 2.47354C9.3998 2.76802 9.70363 3.17176 9.96948 3.68473C10.2353 4.19296 10.4442 4.77718 10.5961 5.4374C10.7535 6.09288 10.8321 6.78397 10.8321 7.51069C10.8321 8.2279 10.7535 8.91425 10.5961 9.56972C10.4442 10.2252 10.2353 10.8094 9.96948 11.3224C9.70363 11.8306 9.3998 12.232 9.05799 12.5265C8.7216 12.8209 8.36894 12.9682 8 12.9682C7.63106 12.9682 7.27569 12.8209 6.93388 12.5265C6.59749 12.232 6.29637 11.8306 6.03052 11.3224C5.76467 10.8094 5.55307 10.2252 5.39573 9.56972C5.24381 8.91425 5.16785 8.2279 5.16785 7.51069C5.16785 6.78397 5.24381 6.09288 5.39573 5.4374C5.55307 4.77718 5.76467 4.19296 6.03052 3.68473C6.29637 3.17176 6.59749 2.76802 6.93388 2.47354C7.27569 2.17905 7.63106 2.03181 8 2.03181ZM7.44659 1.21959V13.7448H8.55341V1.21959H7.44659ZM8 9.78346C7.19702 9.78346 6.43201 9.84283 5.70498 9.96158C4.97796 10.0756 4.32689 10.2371 3.75178 10.4461C3.1821 10.655 2.72092 10.9044 2.36826 11.1941L3.20651 11.8069C3.70024 11.4744 4.36216 11.2155 5.19227 11.0303C6.02238 10.845 6.95829 10.7524 8 10.7524C9.04171 10.7524 9.97762 10.845 10.8077 11.0303C11.6378 11.2155 12.2998 11.4744 12.7935 11.8069L13.6317 11.1941C13.2791 10.9044 12.8152 10.655 12.2401 10.4461C11.6704 10.2371 11.022 10.0756 10.295 9.96158C9.57341 9.84283 8.80841 9.78346 8 9.78346ZM15.0315 7.01196H0.968464V7.98092H15.0315V7.01196ZM8 5.23791C8.80841 5.23791 9.57341 5.18092 10.295 5.06692C11.022 4.95293 11.6704 4.79143 12.2401 4.58244C12.8152 4.3687 13.2791 4.11696 13.6317 3.82723L12.7935 3.22163C12.2998 3.55411 11.6378 3.81298 10.8077 3.99822C9.97762 4.17871 9.04171 4.26896 8 4.26896C6.95829 4.26896 6.02238 4.17871 5.19227 3.99822C4.36758 3.81298 3.70566 3.55411 3.20651 3.22163L2.36826 3.82723C2.72092 4.11696 3.1821 4.3687 3.75178 4.58244C4.32689 4.79143 4.97796 4.95293 5.70498 5.06692C6.43201 5.18092 7.19702 5.23791 8 5.23791ZM8 14.5C9.09596 14.5 10.1241 14.3171 11.0844 13.9514C12.0502 13.5857 12.902 13.0798 13.6399 12.4338C14.3778 11.7926 14.9556 11.0493 15.3733 10.2038C15.7911 9.35835 16 8.45589 16 7.49644C16 6.53698 15.7884 5.6369 15.3652 4.79618C14.9474 3.95072 14.3696 3.205 13.6317 2.55903C12.8993 1.91306 12.0502 1.40958 11.0844 1.0486C10.1187 0.682867 9.08783 0.5 7.99186 0.5C6.90132 0.5 5.87318 0.682867 4.90743 1.0486C3.94168 1.40958 3.08986 1.91306 2.35198 2.55903C1.61953 3.205 1.04442 3.95072 0.626653 4.79618C0.208884 5.6369 0 6.53698 0 7.49644C0 8.45589 0.208884 9.35835 0.626653 10.2038C1.04442 11.0493 1.61953 11.7926 2.35198 12.4338C3.08986 13.0798 3.94168 13.5857 4.90743 13.9514C5.87318 14.3171 6.90404 14.5 8 14.5ZM8 13.3458C7.0885 13.3458 6.22855 13.1938 5.42014 12.8898C4.61173 12.5858 3.90098 12.1655 3.28789 11.6288C2.6748 11.0873 2.19193 10.4627 1.83927 9.75496C1.49203 9.04724 1.31841 8.2944 1.31841 7.49644C1.31841 6.69847 1.49203 5.94801 1.83927 5.24504C2.19193 4.53732 2.6748 3.9151 3.28789 3.37837C3.90098 2.8369 4.60902 2.41416 5.412 2.11018C6.22041 1.80619 7.08037 1.6542 7.99186 1.6542C8.90878 1.6542 9.76873 1.80619 10.5717 2.11018C11.3801 2.41416 12.0909 2.8369 12.704 3.37837C13.3225 3.9151 13.8054 4.53732 14.1526 5.24504C14.5053 5.94801 14.6816 6.69847 14.6816 7.49644C14.6816 8.2944 14.5053 9.04724 14.1526 9.75496C13.8054 10.4627 13.3225 11.0873 12.704 11.6288C12.0909 12.1655 11.3801 12.5858 10.5717 12.8898C9.76873 13.1938 8.9115 13.3458 8 13.3458Z" fill="#797979"/>
</svg>
