<svg width="18" height="18" viewBox="0 0 18 18" fill="none" xmlns="http://www.w3.org/2000/svg">
<g id="fi-rr-home" clip-path="url(#clip0_2248_16122)">
<path id="Vector" d="M17.3408 6.80171L11.652 1.11221C10.9479 0.410203 9.99426 0.0159912 9.00001 0.0159912C8.00576 0.0159912 7.05208 0.410203 6.34801 1.11221L0.659259 6.80171C0.449578 7.01005 0.283336 7.25794 0.170171 7.531C0.0570054 7.80407 -0.0008328 8.09688 9.05961e-06 8.39246V15.7552C9.05961e-06 16.3519 0.237062 16.9242 0.659019 17.3462C1.08098 17.7682 1.65327 18.0052 2.25001 18.0052H15.75C16.3467 18.0052 16.919 17.7682 17.341 17.3462C17.763 16.9242 18 16.3519 18 15.7552V8.39246C18.0009 8.09688 17.943 7.80407 17.8298 7.531C17.7167 7.25794 17.5504 7.01005 17.3408 6.80171ZM11.25 16.5052H6.75001V13.5547C6.75001 12.958 6.98706 12.3857 7.40902 11.9637C7.83098 11.5418 8.40327 11.3047 9.00001 11.3047C9.59675 11.3047 10.169 11.5418 10.591 11.9637C11.013 12.3857 11.25 12.958 11.25 13.5547V16.5052ZM16.5 15.7552C16.5 15.9541 16.421 16.1449 16.2803 16.2855C16.1397 16.4262 15.9489 16.5052 15.75 16.5052H12.75V13.5547C12.75 12.5601 12.3549 11.6063 11.6517 10.9031C10.9484 10.1998 9.99457 9.80471 9.00001 9.80471C8.00545 9.80471 7.05162 10.1998 6.34836 10.9031C5.6451 11.6063 5.25001 12.5601 5.25001 13.5547V16.5052H2.25001C2.0511 16.5052 1.86033 16.4262 1.71968 16.2855C1.57903 16.1449 1.50001 15.9541 1.50001 15.7552V8.39246C1.5007 8.1937 1.57965 8.0032 1.71976 7.86221L7.40851 2.17496C7.83128 1.75416 8.40351 1.51792 9.00001 1.51792C9.59651 1.51792 10.1687 1.75416 10.5915 2.17496L16.2803 7.86446C16.4198 8.0049 16.4987 8.19448 16.5 8.39246V15.7552Z" fill="#797979"/>
</g>
<defs>
<clipPath id="clip0_2248_16122">
<rect width="18" height="18" fill="white"/>
</clipPath>
</defs>
</svg>
