<svg width="78" height="79" viewBox="0 0 78 79" fill="none" xmlns="http://www.w3.org/2000/svg">
<path id="&#244;&#128;&#138;&#128;" d="M0.5 54.0403C0.5 57.9936 1.24482 61.594 2.73445 64.8413C4.22409 68.0652 6.24574 70.6301 8.7994 72.5362C11.3767 74.4422 14.2969 75.3952 17.5599 75.3952H23.5894C20.35 72.7362 17.9264 69.5476 16.3185 65.8297C14.7107 62.1117 13.9304 58.0525 13.9777 53.6521C14.0013 50.6635 14.2969 47.9103 14.8643 45.3925C15.4555 42.8746 16.2476 40.5685 17.2407 38.4742C18.2574 36.3563 19.416 34.3914 20.7165 32.5795H16.1412C13.1856 32.5795 10.5255 33.5208 8.16099 35.4033C5.79648 37.2858 3.92853 39.8508 2.55712 43.0981C1.18571 46.3455 0.5 49.9929 0.5 54.0403ZM19.6525 53.7226C19.6288 57.3465 20.3027 60.6998 21.6741 63.7824C23.0692 66.8415 25.0554 69.5006 27.6327 71.7596C30.21 74.0422 33.3075 75.8071 36.9252 77.0542C40.5665 78.3249 44.6098 78.9721 49.055 78.9956H54.1978C56.5623 79.0191 58.6667 78.9485 60.5111 78.7838C62.379 78.6191 63.8805 78.4073 65.0154 78.1485C66.8361 77.7013 68.3612 76.8895 69.5907 75.7129C70.8203 74.5599 71.4351 73.0539 71.4351 71.1949C71.4351 70.536 71.3641 69.9359 71.2223 69.3947C71.104 68.877 70.9385 68.4064 70.7257 67.9828C70.5129 67.6298 70.5602 67.3827 70.8676 67.2416C72.1444 66.5827 73.173 65.6885 73.9532 64.559C74.7335 63.4294 75.1237 62.1352 75.1237 60.6762C75.1237 59.0055 74.7217 57.5701 73.9178 56.37C73.634 55.9699 73.705 55.6522 74.1306 55.4169C75.0055 54.8051 75.703 53.9697 76.2232 52.9108C76.767 51.8519 77.0389 50.6871 77.0389 49.4164C77.0389 48.4751 76.8971 47.5809 76.6133 46.7338C76.3532 45.8631 75.9985 45.1571 75.5493 44.6159C75.2419 44.31 75.2655 43.9923 75.6202 43.6629C76.235 43.0981 76.6961 42.3686 77.0035 41.4744C77.3345 40.5802 77.5 39.6037 77.5 38.5448C77.5 37.1799 77.169 35.9328 76.5069 34.8032C75.8685 33.6737 74.9936 32.7795 73.8823 32.1206C72.771 31.4618 71.5178 31.1323 70.1228 31.1323H56.7515C55.2619 31.1323 54.0796 30.8029 53.2047 30.144C52.3299 29.4616 51.8924 28.5438 51.8924 27.3908C51.8924 26.1907 52.2117 24.7552 52.8501 23.0845C53.4885 21.3902 54.2215 19.5901 55.0491 17.684C55.9003 15.7544 56.6451 13.8131 57.2835 11.8599C57.9456 9.9068 58.2766 8.07134 58.2766 6.35353C58.2766 4.42394 57.6973 2.88262 56.5387 1.72957C55.4037 0.576524 53.9614 0 52.2117 0C50.7693 0 49.5871 0.435335 48.6649 1.306C47.7427 2.17667 46.8324 3.45915 45.9339 5.15342C43.1438 10.5422 40.0345 15.4838 36.6059 19.9783C33.1774 24.4729 30.0208 28.6144 27.1361 32.403C25.41 34.662 23.9913 36.874 22.88 39.0389C21.7923 41.1803 20.9884 43.4393 20.4682 45.816C19.948 48.1692 19.6761 50.8047 19.6525 53.7226Z" fill="white"/>
</svg>
