<svg width="67" height="80" viewBox="0 0 67 80" fill="none" xmlns="http://www.w3.org/2000/svg">
<path id="&#244;&#128;&#175;&#143;" d="M38.7371 80C42.9307 80 46.5392 79.4976 49.5624 78.4928C52.5857 77.488 54.8971 76.0497 56.4965 74.1781C58.1154 72.3261 58.9249 70.0899 58.9249 67.4695V51.7178C61.4801 49.3929 63.4598 46.4869 64.8642 42.9996C66.2881 39.4927 67 35.7296 67 31.7104C67 26.9425 66.2686 22.6179 64.8057 18.7366C63.3428 14.8356 61.2655 11.4961 58.5738 8.71814C55.8821 5.92045 52.6638 3.77293 48.9188 2.27558C45.1738 0.758527 41.0095 0 36.4258 0C31.8616 0 27.7167 0.738825 23.9913 2.21648C20.2658 3.67442 17.0572 5.77269 14.3655 8.51127C11.6933 11.2498 9.63552 14.5204 8.19214 18.3229C6.74876 22.1254 6.02707 26.3613 6.02707 31.0307C6.02707 31.5035 6.02707 31.9468 6.02707 32.3605C6.04658 32.7743 6.06608 33.1683 6.08559 33.5427L1.60917 41.6697C0.53639 43.6005 0 45.4427 0 47.1962C0 48.8117 0.49738 50.2303 1.49214 51.4518C2.5064 52.6536 4.0083 53.4318 5.99782 53.7865V58.5741C5.99782 62.0613 7.05109 64.6521 9.15764 66.3465C11.2837 68.0409 14.1022 68.7009 17.6131 68.3266L22.6747 67.7651L18.8712 65.2235V67.4695C18.8712 70.0899 19.6611 72.3261 21.241 74.1781C22.821 76.0497 25.0933 77.488 28.0581 78.4928C31.0424 79.4976 34.602 80 38.7371 80ZM37.5 72.5C34.7888 72.5 33.7048 72.3556 31.7738 71.8434C29.8623 71.3508 28.3994 70.6317 27.3852 69.686C26.3709 68.76 25.8638 67.6764 25.8638 66.4352V61.7658C25.8638 61.2338 25.6882 60.8201 25.3371 60.5246C25.0055 60.2093 24.5667 60.0813 24.0205 60.1404L16.8231 60.9383C15.6528 61.0762 14.7751 60.8989 14.19 60.4064C13.6048 59.8941 13.3122 59.0962 13.3122 58.0126V49.3535C13.3122 48.9595 13.1854 48.6443 12.9319 48.4078C12.6978 48.1714 12.376 48.0532 11.9664 48.0532H10.2987C9.53799 48.0532 8.96259 47.8857 8.57249 47.5508C8.18239 47.2159 7.98734 46.7529 7.98734 46.1618C7.98734 45.5707 8.18239 44.9304 8.57249 44.2409L13.6633 35.0203C13.5463 34.3307 13.4488 33.6609 13.3707 33.0107C13.3122 32.3408 13.283 31.6513 13.283 30.942C13.283 26.2332 14.2485 22.1155 16.1795 18.5888C18.1105 15.0425 20.8119 12.2941 24.2838 10.3436C27.7558 8.37335 31.8031 7.38825 36.4258 7.38825C41.068 7.38825 45.125 8.40291 48.5969 10.4322C52.0884 12.4418 54.7996 15.2789 56.7306 18.9435C58.6811 22.5884 59.6563 26.844 59.6563 31.7104C59.6563 35.3355 58.9346 38.6061 57.4913 41.522C56.0479 44.4379 54.0779 46.5952 51.5812 47.9941V66.4352C51.5812 67.6764 51.0643 68.76 50.0306 69.686C49.0163 70.6317 47.5534 71.3508 45.6419 71.8434C43.7304 72.3556 40.1917 72.5 37.5 72.5ZM17.379 26.5386C17.379 29.3363 18.2568 31.602 20.0122 33.3358C21.7677 35.0499 24.0595 35.9069 26.8878 35.9069C29.6965 35.9069 31.9688 35.1287 33.7048 33.5722C35.4603 32.0158 36.338 29.9668 36.338 27.4252C36.338 26.381 36.1527 25.4353 35.7821 24.5881C35.431 23.7212 34.9336 23.0119 34.29 22.4603C33.6853 21.948 33.1001 21.6919 32.5345 21.6919C32.0469 21.6919 31.6373 21.8397 31.3057 22.1352C30.9936 22.4307 30.8376 22.8149 30.8376 23.2878C30.8376 23.7606 30.9448 24.1153 31.1594 24.3517C31.3739 24.5684 31.6958 24.8738 32.1249 25.2678C32.632 25.7604 32.8856 26.4598 32.8856 27.3661C32.8856 28.8831 32.3394 30.1047 31.2472 31.0307C30.1744 31.937 28.7408 32.3901 26.9463 32.3901C25.1128 32.3901 23.6402 31.8581 22.5284 30.7942C21.4166 29.7106 20.8607 28.2822 20.8607 26.5091C20.8607 25.4057 21.1338 24.3911 21.6799 23.4651C22.2456 22.5194 23.016 21.8003 23.9913 21.3077L22.2066 18.2047C20.7242 19.0321 19.5441 20.1946 18.6664 21.6919C17.8082 23.1893 17.379 24.8048 17.379 26.5386ZM21.1533 18.7662C21.1533 20.5984 21.7287 22.0761 22.8795 23.1991C24.0498 24.3221 25.5712 24.8836 27.4437 24.8836C27.8923 24.8836 28.2921 24.7162 28.6432 24.3812C28.9943 24.0266 29.1699 23.6129 29.1699 23.14C29.1699 22.6475 28.9943 22.2337 28.6432 21.8988C28.3116 21.5441 27.9118 21.3668 27.4437 21.3668C26.5854 21.3668 25.9028 21.1304 25.3956 20.6576C24.8885 20.1847 24.6349 19.5542 24.6349 18.7662C24.6349 17.9387 24.9373 17.259 25.5419 16.727C26.1661 16.195 26.956 15.9291 27.9118 15.9291C29.1016 15.9291 30.2036 16.3527 31.2179 17.1999L33.2367 14.3332C31.6568 13.0526 29.8916 12.4123 27.941 12.4123C26.01 12.4123 24.3911 13.023 23.0843 14.2446C21.7969 15.4464 21.1533 16.9536 21.1533 18.7662ZM28.9066 18.2342C28.9066 18.7859 29.0626 19.239 29.3747 19.5936C29.6868 19.9286 30.0964 20.096 30.6035 20.096C31.1106 20.096 31.5202 19.9384 31.8323 19.6232C32.1639 19.308 32.3297 18.8942 32.3297 18.382C32.3882 17.1604 32.8076 16.1655 33.5878 15.3971C34.3875 14.6287 35.3822 14.2347 36.5721 14.215C37.2742 14.215 37.9179 14.3923 38.5031 14.747C39.1077 15.1016 39.5271 15.5646 39.7611 16.1359C39.9952 16.5497 40.4536 16.6777 41.1362 16.5201C41.3118 16.461 41.4873 16.4315 41.6629 16.4315C41.8579 16.4118 42.053 16.4019 42.248 16.4019C43.4769 16.4019 44.5204 16.8354 45.3786 17.7023C46.2368 18.5494 46.6659 19.5936 46.6659 20.8349C46.6659 22.1155 46.3539 23.1597 45.7297 23.9675C45.1055 24.7556 44.3351 25.455 43.4183 26.0658C42.5016 26.6568 41.5849 27.2577 40.6681 27.8685C39.7514 28.4792 38.9712 29.2279 38.3275 30.1145C37.7033 31.0011 37.3913 32.1438 37.3913 33.5427C37.3913 35.2173 37.9764 36.5866 39.1467 37.6505C40.317 38.7144 41.8287 39.2464 43.6817 39.2464C43.7597 39.2464 43.8377 39.2464 43.9157 39.2464C44.0132 39.2464 44.101 39.2464 44.179 39.2464C44.4716 40.6649 45.047 41.8175 45.9052 42.7041C46.783 43.5907 47.8167 44.034 49.0066 44.034C50.723 44.034 52.1371 43.1967 53.2489 41.522C54.3607 39.8276 54.9166 37.6308 54.9166 34.9317C54.9166 33.7692 54.8873 32.8038 54.8288 32.0355C54.7703 31.2474 54.702 30.5086 54.624 29.819L51.1131 30.7647C51.1911 31.4346 51.2594 32.0946 51.3179 32.7447C51.3959 33.3752 51.4349 34.0845 51.4349 34.8726C51.4349 36.6457 51.1814 38.0249 50.6742 39.01C50.1866 39.9951 49.6307 40.4876 49.0066 40.4876C48.4409 40.4876 47.9728 40.1428 47.6022 39.4533C47.2511 38.7637 47.0755 37.887 47.0755 36.8231C47.0755 36.2911 46.8025 36.0251 46.2563 36.0251C46.1003 36.0251 45.9345 36.035 45.759 36.0547C45.5834 36.0547 45.3689 36.0547 45.1153 36.0547C43.7889 36.0547 42.7747 35.8281 42.0725 35.375C41.3898 34.9021 41.0485 34.2421 41.0485 33.3949C41.0485 32.4886 41.3508 31.7498 41.9555 31.1784C42.5796 30.6071 43.3403 30.0653 44.2376 29.553C45.1348 29.0408 46.032 28.4497 46.9293 27.7798C47.846 27.11 48.6067 26.2332 49.2114 25.1496C49.8355 24.0463 50.1476 22.6081 50.1476 20.8349C50.1476 19.3375 49.816 17.9879 49.1528 16.7861C48.4897 15.5646 47.5827 14.609 46.4319 13.9195C45.2811 13.2102 44.0035 12.8556 42.5991 12.8556C42.4821 12.8556 42.3456 12.8654 42.1895 12.8851C42.053 12.8851 41.9067 12.895 41.7507 12.9147C41.107 12.2251 40.3268 11.6931 39.41 11.3188C38.5128 10.9248 37.5668 10.7277 36.5721 10.7277C34.4265 10.7277 32.6223 11.4272 31.1594 12.826C29.6965 14.2248 28.9456 16.0276 28.9066 18.2342ZM45.8467 32.597C45.8467 33.0698 46.0028 33.4737 46.3148 33.8086C46.6464 34.1436 47.056 34.3307 47.5437 34.3702C50.1769 34.5475 52.3029 33.917 53.9218 32.4788C55.5408 31.0208 56.3502 29.0309 56.3502 26.5091C56.3502 24.3615 55.6285 22.5489 54.1852 21.0713C52.7613 19.5936 50.9083 18.7465 48.6262 18.5297L48.0703 22.1352C49.5137 21.9973 50.6742 22.3421 51.552 23.1696C52.4492 23.9773 52.8978 25.0905 52.8978 26.5091C52.8978 27.9473 52.4199 29.0703 51.4642 29.8781C50.5084 30.6662 49.2309 30.9913 47.6314 30.8533C47.1438 30.8139 46.7245 30.9716 46.3734 31.3262C46.0223 31.6808 45.8467 32.1044 45.8467 32.597ZM39.1467 33.7791C38.7176 33.9761 38.2397 34.1337 37.7131 34.2519C37.1865 34.3504 36.6696 34.3997 36.1624 34.3997C35.1872 34.3997 34.2802 34.2322 33.4415 33.8973C32.6028 33.5427 32.0079 33.0698 31.6568 32.4788L28.3507 34.9317C29.1894 35.8774 30.2622 36.6162 31.569 37.1481C32.8758 37.6604 34.29 37.9165 35.8114 37.9165C36.5525 37.9165 37.3132 37.8574 38.0935 37.7392C38.8737 37.6013 39.6246 37.4043 40.3463 37.1481L39.1467 33.7791ZM33.4707 24.1744L34.641 27.573C36.6501 27.2577 38.1812 26.5091 39.2345 25.3269C40.3073 24.1251 40.8242 22.5292 40.7852 20.5393C40.7657 20.0665 40.5804 19.6626 40.2293 19.3277C39.8782 18.973 39.4588 18.7957 38.9712 18.7957C38.5031 18.7957 38.1032 18.973 37.7716 19.3277C37.44 19.6626 37.284 20.0763 37.3035 20.5689C37.3425 21.7707 37.0499 22.6475 36.4258 23.1991C35.8211 23.7311 34.8361 24.0562 33.4707 24.1744Z" fill="white"/>
</svg>
