<svg width="42" height="47" viewBox="0 0 42 47" fill="none" xmlns="http://www.w3.org/2000/svg">
<path d="M25.0446 15.5972C23.6602 16.4557 20.8872 18.1772 20.8701 18.1942L8.13448 10.6952L20.8755 3.63693L36.6119 12.3735L39.7188 10.6049L20.8967 0.333496L1.98438 10.5942L20.7958 21.4605L28.0984 17.4082L25.0446 15.5972Z" fill="black"/>
<path d="M12.71 22.4756V19.207L19.9219 23.2141V45.6528L0.600098 33.6855V12.0425L3.64596 13.959V32.0884L16.8777 40.2593V24.9254L12.71 22.4756Z" fill="black" stroke="black"/>
<path d="M21.7815 45.6668V42.0849L37.9547 32.1233V17.3736L24.8404 25.0227V29.889L21.7793 31.8519V23.2364L41.1433 11.9341V33.7066L21.7815 45.6668Z" fill="black"/>
</svg>
