<svg width="16" height="15" viewBox="0 0 16 15" fill="none" xmlns="http://www.w3.org/2000/svg">
<path id="&#244;&#128;&#140;&#180;" d="M4.6019 14.5C4.81524 14.5 5.01333 14.4512 5.19619 14.3536C5.38413 14.256 5.61016 14.1026 5.87429 13.8934L8.33524 11.9064H12.579C13.3054 11.9064 13.9225 11.7832 14.4305 11.5369C14.9435 11.2859 15.3321 10.928 15.5962 10.4631C15.8654 9.99369 16 9.43127 16 8.7759V3.63048C16 2.9751 15.8654 2.41501 15.5962 1.9502C15.3321 1.48539 14.9435 1.12749 14.4305 0.876494C13.9225 0.625498 13.3054 0.5 12.579 0.5H3.42095C2.69968 0.5 2.08254 0.625498 1.56952 0.876494C1.06159 1.12284 0.673016 1.48074 0.40381 1.9502C0.134603 2.41501 0 2.9751 0 3.63048V8.7759C0 9.43127 0.137143 9.99369 0.411429 10.4631C0.685714 10.9326 1.07175 11.2905 1.56952 11.5369C2.07238 11.7832 2.66667 11.9064 3.35238 11.9064H3.63429V13.496C3.63429 13.8028 3.7181 14.0468 3.88571 14.2281C4.05333 14.4094 4.29206 14.5 4.6019 14.5ZM4.97524 12.9382V11.0697C4.97524 10.8699 4.92444 10.7281 4.82286 10.6444C4.72635 10.5561 4.57397 10.512 4.36571 10.512H3.4819C2.82159 10.512 2.33143 10.3609 2.01143 10.0588C1.69143 9.75664 1.53143 9.31042 1.53143 8.72012V3.68625C1.53143 3.09595 1.69143 2.64973 2.01143 2.34761C2.33143 2.04548 2.82159 1.89442 3.4819 1.89442H12.5181C13.1784 1.89442 13.6686 2.04548 13.9886 2.34761C14.3137 2.64973 14.4762 3.09595 14.4762 3.68625V8.72012C14.4762 9.31042 14.3137 9.75664 13.9886 10.0588C13.6686 10.3609 13.1784 10.512 12.5181 10.512H8.24381C8.01524 10.512 7.83238 10.5375 7.69524 10.5886C7.56317 10.6351 7.41587 10.7327 7.25333 10.8815L4.97524 12.9382ZM3.53524 6.99104H6.23238C6.36952 6.99104 6.48381 6.94688 6.57524 6.85857C6.67175 6.77025 6.72 6.66335 6.72 6.53785C6.72 6.42165 6.67175 6.31939 6.57524 6.23108C6.48381 6.14276 6.36952 6.09861 6.23238 6.09861H3.53524C3.40825 6.09861 3.29651 6.14276 3.2 6.23108C3.10857 6.31939 3.06286 6.42165 3.06286 6.53785C3.06286 6.66335 3.10857 6.77025 3.2 6.85857C3.29651 6.94688 3.40825 6.99104 3.53524 6.99104ZM7.75619 6.99104H12.4571C12.5943 6.99104 12.7086 6.94688 12.8 6.85857C12.8914 6.77025 12.9371 6.66335 12.9371 6.53785C12.9371 6.42165 12.8914 6.31939 12.8 6.23108C12.7086 6.14276 12.5943 6.09861 12.4571 6.09861H7.75619C7.62413 6.09861 7.51238 6.14276 7.42095 6.23108C7.32952 6.31939 7.28381 6.42165 7.28381 6.53785C7.28381 6.66335 7.32952 6.77025 7.42095 6.85857C7.51238 6.94688 7.62413 6.99104 7.75619 6.99104ZM3.53524 8.73406H4.69333C4.8254 8.73406 4.93968 8.68991 5.03619 8.60159C5.1327 8.51328 5.18095 8.4087 5.18095 8.28785C5.18095 8.16235 5.1327 8.05544 5.03619 7.96713C4.93968 7.87882 4.8254 7.83466 4.69333 7.83466H3.53524C3.40825 7.83466 3.29651 7.87882 3.2 7.96713C3.10857 8.05544 3.06286 8.16235 3.06286 8.28785C3.06286 8.4087 3.10857 8.51328 3.2 8.60159C3.29651 8.68991 3.40825 8.73406 3.53524 8.73406ZM6.20952 8.73406H9.60762C9.73968 8.73406 9.85143 8.68991 9.94286 8.60159C10.0394 8.51328 10.0876 8.4087 10.0876 8.28785C10.0876 8.16235 10.0394 8.05544 9.94286 7.96713C9.85143 7.87882 9.73968 7.83466 9.60762 7.83466H6.20952C6.08254 7.83466 5.97079 7.87882 5.87429 7.96713C5.78286 8.05544 5.73714 8.16235 5.73714 8.28785C5.73714 8.4087 5.78286 8.51328 5.87429 8.60159C5.97079 8.68991 6.08254 8.73406 6.20952 8.73406ZM11.1314 8.73406H12.4571C12.5943 8.73406 12.7086 8.68991 12.8 8.60159C12.8914 8.51328 12.9371 8.4087 12.9371 8.28785C12.9371 8.16235 12.8914 8.05544 12.8 7.96713C12.7086 7.87882 12.5943 7.83466 12.4571 7.83466H11.1314C10.9943 7.83466 10.88 7.87882 10.7886 7.96713C10.7022 8.05544 10.659 8.16235 10.659 8.28785C10.659 8.4087 10.7048 8.51328 10.7962 8.60159C10.8876 8.68991 10.9994 8.73406 11.1314 8.73406Z" fill="#797979"/>
</svg>
