<svg width="25" height="25" viewBox="0 0 25 25" fill="none" xmlns="http://www.w3.org/2000/svg">
<path d="M15.2725 24.833C15.7108 24.833 16.0849 24.6668 16.3948 24.3344C16.7047 24.0096 16.9654 23.5752 17.1771 23.0313L24.648 3.48457C24.7463 3.22772 24.8218 2.98976 24.8747 2.77068C24.9276 2.55161 24.9541 2.34387 24.9541 2.14746C24.9541 1.74708 24.837 1.4298 24.6027 1.19561C24.3684 0.953877 24.0509 0.833008 23.6504 0.833008C23.4614 0.833008 23.2536 0.863225 23.0268 0.923659C22.8001 0.976539 22.5583 1.04831 22.3013 1.13896L2.67729 8.6517C2.18603 8.84056 1.77413 9.08985 1.44158 9.39958C1.1166 9.70931 0.954102 10.0832 0.954102 10.5214C0.954102 11.0577 1.13549 11.4543 1.49827 11.7112C1.86105 11.9605 2.3183 12.1682 2.87002 12.3344L8.75382 14.1361C9.14683 14.257 9.47559 14.3061 9.74012 14.2834C10.0046 14.2532 10.2767 14.1097 10.5564 13.8528L23.1742 2.15879C23.2498 2.0908 23.3292 2.0568 23.4123 2.0568C23.503 2.0568 23.5823 2.08702 23.6504 2.14746C23.7108 2.20789 23.7411 2.28343 23.7411 2.37408C23.7411 2.45718 23.7033 2.5365 23.6277 2.61204L11.9735 15.2579C11.7316 15.5148 11.5918 15.7792 11.554 16.0511C11.5238 16.3231 11.5653 16.6593 11.6787 17.0596L13.4246 22.816C13.5984 23.3977 13.8138 23.8774 14.0708 24.2551C14.3277 24.6404 14.7283 24.833 15.2725 24.833Z" fill="#DFE5EE"/>
</svg>
