<svg width="18" height="22" viewBox="0 0 18 22" fill="none" xmlns="http://www.w3.org/2000/svg">
<path d="M3.77148 21.5938C2.69727 21.5938 1.88021 21.3138 1.32031 20.7539C0.766927 20.194 0.490234 19.3737 0.490234 18.293V3.61523C0.490234 2.53451 0.766927 1.71419 1.32031 1.1543C1.88021 0.587891 2.69727 0.304688 3.77148 0.304688H6.08594C6.30078 0.304688 6.4668 0.373047 6.58398 0.509766C6.70117 0.646484 6.75977 0.8125 6.75977 1.00781C6.75977 1.03385 6.75977 1.06315 6.75977 1.0957C6.75977 1.12826 6.75977 1.15755 6.75977 1.18359C6.75977 1.82812 6.95833 2.33268 7.35547 2.69727C7.75911 3.06185 8.30273 3.24414 8.98633 3.24414C9.66341 3.24414 10.2038 3.06185 10.6074 2.69727C11.0111 2.33268 11.2129 1.82812 11.2129 1.18359C11.2129 1.15755 11.2129 1.12826 11.2129 1.0957C11.2129 1.06315 11.2129 1.03385 11.2129 1.00781C11.2129 0.8125 11.2715 0.646484 11.3887 0.509766C11.5059 0.373047 11.6686 0.304688 11.877 0.304688H14.2012C15.2689 0.304688 16.0827 0.587891 16.6426 1.1543C17.2025 1.71419 17.4824 2.53451 17.4824 3.61523V18.293C17.4824 19.3737 17.2025 20.194 16.6426 20.7539C16.0827 21.3138 15.2689 21.5938 14.2012 21.5938H3.77148ZM5.46094 7.95117H12.5117C12.6875 7.95117 12.8372 7.88932 12.9609 7.76562C13.0846 7.63542 13.1465 7.47917 13.1465 7.29688C13.1465 7.11458 13.0846 6.96484 12.9609 6.84766C12.8372 6.72396 12.6875 6.66211 12.5117 6.66211H5.46094C5.27865 6.66211 5.12565 6.72396 5.00195 6.84766C4.87826 6.96484 4.81641 7.11458 4.81641 7.29688C4.81641 7.47917 4.87826 7.63542 5.00195 7.76562C5.12565 7.88932 5.27865 7.95117 5.46094 7.95117ZM5.46094 11.3887H8.92773C9.11654 11.3887 9.26953 11.3301 9.38672 11.2129C9.51042 11.0892 9.57227 10.9362 9.57227 10.7539C9.57227 10.5716 9.51042 10.4186 9.38672 10.2949C9.26953 10.1712 9.11654 10.1094 8.92773 10.1094H5.46094C5.27865 10.1094 5.12565 10.1712 5.00195 10.2949C4.87826 10.4186 4.81641 10.5716 4.81641 10.7539C4.81641 10.9362 4.87826 11.0892 5.00195 11.2129C5.12565 11.3301 5.27865 11.3887 5.46094 11.3887Z" fill="#2B61F3"/>
</svg>
