<svg width="16" height="15" viewBox="0 0 16 15" fill="none" xmlns="http://www.w3.org/2000/svg">
<path d="M2.17638 14.5H13.8236C14.2647 14.5 14.6474 14.4053 14.9716 14.2159C15.3011 14.0315 15.5536 13.7807 15.7289 13.4632C15.9096 13.1458 16 12.7951 16 12.4111C16 12.2319 15.9734 12.0528 15.9203 11.8736C15.8724 11.6944 15.798 11.5177 15.6971 11.3437L9.86946 1.55211C9.65687 1.20397 9.38316 0.94286 9.04833 0.768788C8.7135 0.589596 8.36273 0.5 7.99601 0.5C7.6293 0.5 7.27852 0.589596 6.9437 0.768788C6.60887 0.94286 6.33782 1.20397 6.13054 1.55211L0.30294 11.3513C0.10098 11.6841 0 12.0374 0 12.4111C0 12.7951 0.0876931 13.1458 0.263079 13.4632C0.44378 13.7807 0.69623 14.0315 1.02043 14.2159C1.34994 14.4053 1.73526 14.5 2.17638 14.5ZM2.35974 13.0332C2.13652 13.0332 1.95848 12.959 1.82561 12.8105C1.69806 12.6671 1.63428 12.5007 1.63428 12.3113C1.63428 12.255 1.63959 12.191 1.65022 12.1193C1.66617 12.0476 1.69274 11.9785 1.72995 11.912L7.37419 2.38919C7.44328 2.27656 7.53363 2.19464 7.64524 2.14344C7.76217 2.09225 7.87909 2.06665 7.99601 2.06665C8.11825 2.06665 8.23518 2.09481 8.34679 2.15112C8.4584 2.20232 8.54609 2.28424 8.60987 2.39687L14.2621 11.9273C14.3312 12.0502 14.3657 12.1782 14.3657 12.3113C14.3657 12.5007 14.2993 12.6671 14.1664 12.8105C14.0389 12.959 13.8635 13.0332 13.6403 13.0332H2.35974ZM8.00399 9.42375C8.45042 9.42375 8.68161 9.20104 8.69756 8.75562L8.81714 5.36122C8.82777 5.13595 8.75336 4.95164 8.59392 4.80828C8.43448 4.66493 8.23518 4.59325 7.99601 4.59325C7.75685 4.59325 7.56021 4.66493 7.40608 4.80828C7.25195 4.94652 7.1802 5.12827 7.19083 5.35354L7.29447 8.7633C7.31041 9.2036 7.54692 9.42375 8.00399 9.42375ZM8.00399 11.8505C8.25909 11.8505 8.47434 11.7763 8.64973 11.6278C8.83043 11.4742 8.92078 11.2771 8.92078 11.0365C8.92078 10.801 8.83043 10.6064 8.64973 10.4528C8.47434 10.2992 8.25909 10.2224 8.00399 10.2224C7.74888 10.2224 7.53363 10.2992 7.35825 10.4528C7.18286 10.6064 7.09517 10.801 7.09517 11.0365C7.09517 11.272 7.18286 11.4665 7.35825 11.6201C7.53895 11.7737 7.75419 11.8505 8.00399 11.8505Z" fill="#797979"/>
</svg>
